# xmcd
# Track frame offsets:
# 150
# 20950
# 37787
# 54797
# 64597
# 81882
# 101425
# 125555
# 146380
# 169202
# 187542
#
# Disc length: 2761 seconds
# Revision: 0
# Processed by: cddbd v1.4PL0 Copyright (c) Steve Scherf et al.
# Submitted via: VisiTrax 2.9.3.171 - For more info visit www.synapsa.com
#
DISCID=830ac70b
DTITLE=The VooDudes - Wake The Dead
DYEAR=1900
DGENRE=Blues
TTITLE0=It'll Be Alright
TTITLE1=Struttivarius
TTITLE2=Decatur Street Boogie
TTITLE3=I'm Ashamed of Myself
TTITLE4=That Hank Williams Feeling
TTITLE5=Buddy Bolden's Blues (Funky Butt)
TTITLE6=Do It Till Your Folks Get Home
TTITLE7=John Henry
TTITLE8=Wild Dogs (of New Orleans)
TTITLE9=Stroke It
TTITLE10=White Rasta Man
EXTD=
EXTT0=
EXTT1=
EXTT2=
EXTT3=
EXTT4=
EXTT5=
EXTT6=
EXTT7=
EXTT8=
EXTT9=
EXTT10=
PLAYORDER=
